# xmcd
#
# Track frame offsets: 
#        150
#        12242
#        25355
#        37682
#        49717
#        62775
#        75452
#        89040
#        100070
#        113997
#        126852
#        138187
#        152780
#        163882
#        181660
#        190472
#        206900
#        231075
#
# Disc length: 3234 seconds
#
# Revision: 0
# Processed by: cddbd v1.5.1PL2 Copyright (c) Steve Scherf et al.
# Submitted via: ExactAudioCopy v0.95a5
#
DISCID=ef0ca012
DTITLE=Various Artist - Martin Scorsese Presents the Blues: Godfathers and So
DTITLE=ns
DYEAR=2003
DGENRE=Blues
TTITLE0=Jimmy Rogers - Chicago Bound
TTITLE1=Muddy Waters - Mannish Boy
TTITLE2=Howlin' Wolf - Spoonful
TTITLE3=Jimmy Reed - Bright Lights, Big City
TTITLE4=Howlin' Wolf - Evil
TTITLE5=Little Walter - Key to the Highway
TTITLE6=Koko Taylor - Wang Dang Doodle
TTITLE7=Howlin' Wolf - The Red Rooster
TTITLE8=Koko Taylor - I Got What It Takes 
TTITLE9=Muddy Waters - Hoochie Coochie Man
TTITLE10=Bo Diddley - Diddley Daddy
TTITLE11=Paul Butterfield - Born in Chicago
TTITLE12=Paul Butterfield - Shake Your Money Maker
TTITLE13=Bob Dylan - Maggie's Farm
TTITLE14=Public Enemy - Show 'Em Whatcha Got
TTITLE15=Common - Dooinit
TTITLE16=Electrik Mud Cats - Mannish Boy
TTITLE17=Etta James - I'd Rather Go Blind
EXTD=
EXTT0=
EXTT1=
EXTT2=
EXTT3=
EXTT4=
EXTT5=
EXTT6=
EXTT7=
EXTT8=
EXTT9=
EXTT10=
EXTT11=
EXTT12=
EXTT13=
EXTT14=
EXTT15=
EXTT16=
EXTT17=
PLAYORDER=
